# xmcd
#
# Track frame offsets:
#	150
#	15075
#	34386
#	51196
#	72330
#	89538
#	106715
#	131545
#	145707
#	160204
#	177580
#	187921
#	201398
#	216024
#	229984
#	249719
#	260593
#	272527
#	286881
#	302631
#
# Disc length: 4245 seconds
#
# Revision: 1
# Processed by: cddbd v1.5.2PL0 Copyright (c) Steve Scherf et al.
# Submitted via: audiograbber 1.83.01
#
DISCID=21109314
DTITLE=Lacy J. Dalton - Highway Diner and Blue Eyed Blues [remastered 2014]
DYEAR=1986
DGENRE=Country
TTITLE0=Highway Diner - Working Class Man
TTITLE1=Highway Diner - 12:05
TTITLE2=Highway Diner - Changing All The Time
TTITLE3=Highway Diner - Taking It All In Stride
TTITLE4=Highway Diner - Can't See Me Without You
TTITLE5=Highway Diner - This Ol' Town
TTITLE6=Highway Diner - Up With The Wind
TTITLE7=Highway Diner - Boomtown
TTITLE8=Highway Diner - Gone Again
TTITLE9=Highway Diner - Closing Time
TTITLE10=Blue Eyed Blues - Have I Got A Heart For You
TTITLE11=Blue Eyed Blues - It's A Dirty Job [with Bobby Bare]
TTITLE12=Blue Eyed Blues - Blue Eyed Blues
TTITLE13=Blue Eyed Blues - That's Good - That's Bad [with George Jones]
TTITLE14=Blue Eyed Blues - Gotta Serve Somebody [with David Allan Coe]
TTITLE15=Blue Eyed Blues - I'll Love Them Whatever They Are
TTITLE16=Blue Eyed Blues - Hillbilly Girl With The Blues
TTITLE17=Blue Eyed Blues - 16th Avenue
TTITLE18=Blue Eyed Blues - My Old Yellow Car
TTITLE19=Blue Eyed Blues - Love Gone Cold [with Earl Scruggs]
EXTD=
EXTT0=
EXTT1=
EXTT2=
EXTT3=
EXTT4=
EXTT5=
EXTT6=
EXTT7=
EXTT8=
EXTT9=
EXTT10=
EXTT11=
EXTT12=
EXTT13=
EXTT14=
EXTT15=
EXTT16=
EXTT17=
EXTT18=
EXTT19=
PLAYORDER=
